<?xml version="1.0" encoding="iso-8859-1"?>
<!-- Generator: Adobe Illustrator 19.0.0, SVG Export Plug-In . SVG Version: 6.00 Build 0)  -->
<svg version="1.1" id="Capa_1" xmlns="http://www.w3.org/2000/svg" xmlns:xlink="http://www.w3.org/1999/xlink" x="0px" y="0px"
	 viewBox="0 0 512 512" style="enable-background:new 0 0 512 512;" xml:space="preserve">
<circle style="fill:#A5CDFF;" cx="256" cy="256" r="248.5"/>
<path style="fill:#8CB4EB;" d="M310.022,450.478c-137.243,0-248.5-111.258-248.5-248.5c0-54.836,17.8-105.495,47.884-146.595
	C47.641,100.593,7.5,173.593,7.5,256c0,137.242,111.257,248.5,248.5,248.5c82.406,0,155.405-40.141,200.615-101.905
	C415.515,432.679,364.857,450.478,310.022,450.478z"/>
<path style="fill:#FFFFFF;" d="M423.821,336.161H88.179c-13.567,0-24.566-10.998-24.566-24.566V200.404
	c0-13.567,10.998-24.566,24.566-24.566h335.643c13.567,0,24.566,10.998,24.566,24.566v111.191
	C448.387,325.163,437.389,336.161,423.821,336.161z"/>
<path style="fill:#EDEBED;" d="M447.87,312.113H215.919c-70.835,0-128.258-57.423-128.258-128.258v-7.499
	c0-0.161,0.045-0.31,0.047-0.47c-13.345,0.257-24.096,11.112-24.096,24.518v111.192c0,13.567,10.998,24.566,24.566,24.566h335.643
	c13.406,0,24.261-10.751,24.518-24.096C448.18,312.068,448.031,312.113,447.87,312.113z"/>
<path d="M437.02,74.98C388.667,26.629,324.38,0,256,0S123.333,26.629,74.98,74.98C26.629,123.333,0,187.62,0,256
	s26.629,132.667,74.98,181.02C123.333,485.371,187.62,512,256,512s132.667-26.629,181.02-74.98C485.371,388.667,512,324.38,512,256
	S485.371,123.333,437.02,74.98z M444.282,406.456c-22.859-9.615-46.285-17.409-70.182-23.361
	c3.757-12.523,6.963-25.701,9.583-39.434h40.138c17.681,0,32.066-14.384,32.066-32.065V263.5h40.985
	C495.275,316.104,476.891,365.809,444.282,406.456z M15.127,263.5h40.985v48.096c0,17.681,14.385,32.065,32.066,32.065h40.158
	c2.609,13.658,5.799,26.848,9.583,39.429c-23.904,5.953-47.336,13.748-70.203,23.366C35.109,365.809,16.725,316.104,15.127,263.5z
	 M67.738,105.519c22.855,9.617,46.276,17.413,70.167,23.367c-3.759,12.529-6.968,25.713-9.588,39.453H88.179
	c-17.681,0-32.066,14.384-32.066,32.065V248.5H15.127C16.725,195.885,35.116,146.171,67.738,105.519z M440.887,311.596
	c0,9.41-7.656,17.065-17.066,17.065H88.179c-9.41,0-17.066-7.655-17.066-17.065V200.404c0-9.41,7.656-17.065,17.066-17.065h335.643
	c9.41,0,17.066,7.655,17.066,17.065v111.192H440.887z M263.5,168.339v-25.141c32.6-0.479,64.648-4.114,95.936-10.864
	c3.493,11.499,6.493,23.525,8.967,36.005H263.5z M248.5,15.478v112.715c-30.971-0.479-61.424-3.899-91.169-10.218
	c8.021-22.595,17.98-42.595,29.388-58.683C205.184,33.25,226.405,18.25,248.5,15.478z M248.5,143.195v25.144H143.597
	c2.479-12.464,5.506-24.521,9.013-36.029C183.882,139.064,215.916,142.706,248.5,143.195z M143.597,343.661H248.5v25.143
	c-32.598,0.484-64.644,4.123-95.929,10.877C149.075,368.178,146.072,356.146,143.597,343.661z M263.5,496.522V383.806
	c30.973,0.474,61.428,3.89,91.175,10.204c-8.022,22.602-17.983,42.607-29.394,58.699C306.816,478.75,285.595,493.75,263.5,496.522z
	 M263.5,368.804v-25.143h104.904c-2.478,12.459-5.503,24.51-9.008,36.013C328.121,372.924,296.086,369.288,263.5,368.804z
	 M455.887,248.5v-48.096c0-17.681-14.385-32.065-32.066-32.065h-40.158c-2.608-13.652-5.797-26.834-9.58-39.41
	c23.91-5.949,47.348-13.743,70.219-23.359c32.596,40.642,50.973,90.337,52.57,142.93L455.887,248.5L455.887,248.5z M426.413,85.587
	c2.615,2.615,5.154,5.285,7.633,7.996c-21.078,8.609-42.644,15.635-64.623,21.049c-1.323-3.794-2.681-7.55-4.114-11.217
	c-1.507-3.858-5.858-5.765-9.715-4.256c-3.858,1.507-5.764,5.857-4.256,9.715c1.169,2.991,2.289,6.041,3.382,9.123
	c-29.761,6.314-60.231,9.728-91.218,10.197V15.488c27.376,3.457,53.452,25.753,74.114,63.684c1.981,3.637,6.535,4.979,10.174,2.998
	c3.637-1.981,4.98-6.536,2.999-10.174c-11.773-21.612-25.362-38.698-40.137-50.795C354.144,31.237,394.067,53.242,426.413,85.587z
	 M201.3,21.213c-9.446,7.757-18.433,17.578-26.816,29.401c-12.66,17.854-23.417,39.466-31.949,63.968
	C120.586,109.164,99.05,102.141,78,93.536c2.465-2.695,4.989-5.349,7.588-7.948C117.92,53.255,157.825,31.254,201.3,21.213z
	 M85.587,426.413c-2.607-2.607-5.138-5.269-7.61-7.972c21.073-8.611,42.633-15.637,64.606-21.055
	c1.29,3.699,2.613,7.361,4.007,10.938c1.156,2.965,3.989,4.778,6.99,4.778c0.906,0,1.827-0.165,2.722-0.514
	c3.859-1.504,5.769-5.852,4.265-9.711c-1.133-2.906-2.22-5.867-3.282-8.859c29.76-6.319,60.228-9.738,91.214-10.212v112.706
	c-27.357-3.455-53.419-25.726-74.074-63.611c-1.982-3.637-6.538-4.978-10.175-2.995s-4.978,6.538-2.995,10.175
	c11.763,21.576,25.338,38.636,40.097,50.719C157.857,480.764,117.933,458.758,85.587,426.413z M310.7,490.787
	c9.446-7.757,18.433-17.578,26.817-29.402c12.663-17.858,23.422-39.477,31.955-63.986c21.954,5.416,43.496,12.438,64.551,21.041
	c-2.472,2.703-5.003,5.365-7.61,7.972C394.08,458.745,354.175,480.746,310.7,490.787z"/>
<path d="M236.46,231.436c4.142,0,7.5-3.358,7.5-7.5s-3.358-7.5-7.5-7.5h-48.097c-4.142,0-7.5,3.358-7.5,7.5v64.129
	c0,4.142,3.358,7.5,7.5,7.5h48.097c4.142,0,7.5-3.358,7.5-7.5s-3.358-7.5-7.5-7.5h-40.597V263.5h34.585c4.142,0,7.5-3.358,7.5-7.5
	s-3.358-7.5-7.5-7.5h-34.585v-17.064H236.46z"/>
<path d="M158.303,216.436c-4.142,0-7.5,3.358-7.5,7.5v41.629l-34.597-46.129c-1.937-2.583-5.311-3.635-8.372-2.615
	c-3.062,1.021-5.128,3.887-5.128,7.115v64.129c0,4.142,3.358,7.5,7.5,7.5s7.5-3.358,7.5-7.5v-41.629l34.597,46.129
	c1.444,1.925,3.685,3,6.001,3c0.791,0,1.591-0.125,2.371-0.385c3.062-1.021,5.128-3.887,5.128-7.115v-64.129
	C165.803,219.793,162.445,216.436,158.303,216.436z"/>
<path d="M336.438,216.716c-3.987-1.121-8.129,1.201-9.25,5.189l-10.816,38.458l-10.817-38.458c-0.91-3.235-3.86-5.47-7.22-5.47
	c-3.36,0-6.31,2.235-7.22,5.47l-10.816,38.458l-10.816-38.458c-1.121-3.988-5.26-6.312-9.25-5.189
	c-3.987,1.121-6.311,5.263-5.189,9.25l18.036,64.129c0.91,3.235,3.86,5.47,7.22,5.47s6.31-2.235,7.22-5.47l10.816-38.458
	l10.817,38.458c0.91,3.235,3.86,5.47,7.22,5.47c3.36,0,6.31-2.235,7.22-5.47l18.036-64.129
	C342.749,221.979,340.426,217.837,336.438,216.716z"/>
<path d="M382.755,231.436c10.296,0,16.548,4.534,16.548,6.528c0,4.142,3.358,7.5,7.5,7.5s7.5-3.358,7.5-7.5
	c0-12.273-13.563-21.528-31.548-21.528s-31.548,9.255-31.548,21.528c0,17.057,17.777,21.995,29.541,25.263
	c15.52,4.311,18.556,7.228,18.556,10.81c0,1.994-6.252,6.528-16.548,6.528s-16.548-4.534-16.548-6.528c0-4.142-3.358-7.5-7.5-7.5
	s-7.5,3.358-7.5,7.5c0,12.273,13.563,21.528,31.548,21.528s31.548-9.255,31.548-21.528c0-17.057-17.777-21.995-29.541-25.263
	c-15.52-4.311-18.556-7.228-18.556-10.81C366.207,235.97,372.458,231.436,382.755,231.436z"/>
<g>
</g>
<g>
</g>
<g>
</g>
<g>
</g>
<g>
</g>
<g>
</g>
<g>
</g>
<g>
</g>
<g>
</g>
<g>
</g>
<g>
</g>
<g>
</g>
<g>
</g>
<g>
</g>
<g>
</g>
</svg>
